<svg width="245" height="130" viewBox="0 0 245 130" fill="none" xmlns="http://www.w3.org/2000/svg">
<circle cx="65" cy="65" r="65" fill="#8D86C9"/>
<circle cx="180" cy="65" r="65" fill="#8D86C9"/>
<path d="M66.8065 70.524V48.024C66.8065 47.232 67.0225 46.644 67.4545 46.26C67.9105 45.876 68.4745 45.684 69.1465 45.684C70.0345 45.684 70.7185 45.84 71.1985 46.152C71.6785 46.464 72.2065 47.136 72.7825 48.168L77.2105 56.232L81.6385 48.168C82.2145 47.136 82.7425 46.464 83.2225 46.152C83.7265 45.84 84.4225 45.684 85.3105 45.684C85.9825 45.684 86.5345 45.876 86.9665 46.26C87.4225 46.644 87.6505 47.232 87.6505 48.024V70.524C87.6505 70.98 87.4105 71.34 86.9305 71.604C86.4745 71.868 85.9345 72 85.3105 72C84.6625 72 84.1105 71.868 83.6545 71.604C83.1985 71.34 82.9705 70.98 82.9705 70.524V55.044L78.7585 62.532C78.4225 63.156 77.8945 63.468 77.1745 63.468C76.4785 63.468 75.9625 63.156 75.6265 62.532L71.4865 54.756V70.524C71.4865 70.98 71.2465 71.34 70.7665 71.604C70.3105 71.868 69.7705 72 69.1465 72C68.4985 72 67.9465 71.868 67.4905 71.604C67.0345 71.34 66.8065 70.98 66.8065 70.524ZM91.3664 48.816C91.3664 48.192 91.6064 47.664 92.0864 47.232C92.5904 46.776 93.2024 46.548 93.9224 46.548C94.6184 46.548 95.2064 46.776 95.6864 47.232C96.1904 47.664 96.4424 48.192 96.4424 48.816C96.4424 49.416 96.1904 49.944 95.6864 50.4C95.2064 50.856 94.6184 51.084 93.9224 51.084C93.2024 51.084 92.5904 50.856 92.0864 50.4C91.6064 49.944 91.3664 49.416 91.3664 48.816ZM91.6184 70.524V56.34C91.6184 55.908 91.8344 55.56 92.2664 55.296C92.6984 55.032 93.2504 54.9 93.9224 54.9C94.5944 54.9 95.1464 55.032 95.5784 55.296C96.0344 55.56 96.2624 55.908 96.2624 56.34V70.524C96.2624 70.884 96.0224 71.22 95.5424 71.532C95.0864 71.844 94.5464 72 93.9224 72C93.2744 72 92.7224 71.856 92.2664 71.568C91.8344 71.256 91.6184 70.908 91.6184 70.524ZM99.8089 66.168V48.708C99.8089 48.3 100.049 47.964 100.529 47.7C101.009 47.412 101.537 47.268 102.113 47.268C102.737 47.268 103.277 47.412 103.733 47.7C104.213 47.964 104.453 48.3 104.453 48.708V54.9H108.701C109.061 54.9 109.349 55.068 109.565 55.404C109.781 55.74 109.889 56.136 109.889 56.592C109.889 57.048 109.781 57.444 109.565 57.78C109.349 58.116 109.061 58.284 108.701 58.284H104.453V66.168C104.453 66.864 104.597 67.356 104.885 67.644C105.197 67.932 105.725 68.076 106.469 68.076H107.873C108.497 68.076 108.977 68.268 109.313 68.652C109.673 69.036 109.853 69.492 109.853 70.02C109.853 70.572 109.673 71.04 109.313 71.424C108.977 71.808 108.497 72 107.873 72H106.469C102.029 72 99.8089 70.056 99.8089 66.168ZM111.317 67.536C111.317 65.592 112.037 64.224 113.477 63.432C114.917 62.64 116.993 62.244 119.705 62.244H121.181V61.776C121.181 60.888 120.917 60.12 120.389 59.472C119.885 58.8 119.093 58.464 118.013 58.464C116.933 58.464 116.009 58.656 115.241 59.04C114.473 59.4 114.029 59.58 113.909 59.58C113.429 59.58 113.045 59.34 112.757 58.86C112.469 58.38 112.325 57.852 112.325 57.276C112.325 56.58 112.937 55.98 114.161 55.476C115.409 54.948 116.717 54.684 118.085 54.684C120.701 54.684 122.645 55.356 123.917 56.7C125.189 58.02 125.825 59.688 125.825 61.704V70.524C125.825 70.932 125.609 71.28 125.177 71.568C124.745 71.856 124.205 72 123.557 72C122.957 72 122.453 71.856 122.045 71.568C121.661 71.28 121.469 70.932 121.469 70.524V69.48C119.813 71.376 117.989 72.324 115.997 72.324C114.629 72.324 113.501 71.916 112.613 71.1C111.749 70.284 111.317 69.096 111.317 67.536ZM115.961 66.924C115.961 67.572 116.129 68.064 116.465 68.4C116.825 68.712 117.293 68.868 117.869 68.868C118.637 68.868 119.381 68.508 120.101 67.788C120.821 67.068 121.181 66.276 121.181 65.412V64.656H120.641C119.177 64.656 118.025 64.812 117.185 65.124C116.369 65.412 115.961 66.012 115.961 66.924ZM136.838 70.524V48.024C136.838 47.232 137.054 46.644 137.486 46.26C137.942 45.876 138.506 45.684 139.178 45.684C140.066 45.684 140.75 45.84 141.23 46.152C141.71 46.464 142.238 47.136 142.814 48.168L147.242 56.232L151.67 48.168C152.246 47.136 152.774 46.464 153.254 46.152C153.758 45.84 154.454 45.684 155.342 45.684C156.014 45.684 156.566 45.876 156.998 46.26C157.454 46.644 157.682 47.232 157.682 48.024V70.524C157.682 70.98 157.442 71.34 156.962 71.604C156.506 71.868 155.966 72 155.342 72C154.694 72 154.142 71.868 153.686 71.604C153.23 71.34 153.002 70.98 153.002 70.524V55.044L148.79 62.532C148.454 63.156 147.926 63.468 147.206 63.468C146.51 63.468 145.994 63.156 145.658 62.532L141.518 54.756V70.524C141.518 70.98 141.278 71.34 140.798 71.604C140.342 71.868 139.802 72 139.178 72C138.53 72 137.978 71.868 137.522 71.604C137.066 71.34 136.838 70.98 136.838 70.524ZM160.642 67.536C160.642 65.592 161.362 64.224 162.802 63.432C164.242 62.64 166.318 62.244 169.03 62.244H170.506V61.776C170.506 60.888 170.242 60.12 169.714 59.472C169.21 58.8 168.418 58.464 167.338 58.464C166.258 58.464 165.334 58.656 164.566 59.04C163.798 59.4 163.354 59.58 163.234 59.58C162.754 59.58 162.37 59.34 162.082 58.86C161.794 58.38 161.65 57.852 161.65 57.276C161.65 56.58 162.262 55.98 163.486 55.476C164.734 54.948 166.042 54.684 167.41 54.684C170.026 54.684 171.97 55.356 173.242 56.7C174.514 58.02 175.15 59.688 175.15 61.704V70.524C175.15 70.932 174.934 71.28 174.502 71.568C174.07 71.856 173.53 72 172.882 72C172.282 72 171.778 71.856 171.37 71.568C170.986 71.28 170.794 70.932 170.794 70.524V69.48C169.138 71.376 167.314 72.324 165.322 72.324C163.954 72.324 162.826 71.916 161.938 71.1C161.074 70.284 160.642 69.096 160.642 67.536ZM165.286 66.924C165.286 67.572 165.454 68.064 165.79 68.4C166.15 68.712 166.618 68.868 167.194 68.868C167.962 68.868 168.706 68.508 169.426 67.788C170.146 67.068 170.506 66.276 170.506 65.412V64.656H169.966C168.502 64.656 167.35 64.812 166.51 65.124C165.694 65.412 165.286 66.012 165.286 66.924ZM175.427 78.048C175.427 77.448 175.595 76.956 175.931 76.572C176.267 76.212 176.687 76.032 177.191 76.032C177.791 76.032 178.175 75.792 178.343 75.312C178.535 74.832 178.631 74.112 178.631 73.152V56.34C178.631 55.908 178.847 55.56 179.279 55.296C179.711 55.032 180.251 54.9 180.899 54.9C181.571 54.9 182.135 55.032 182.591 55.296C183.047 55.56 183.275 55.908 183.275 56.34V73.152C183.275 75.216 182.807 76.86 181.871 78.084C180.935 79.332 179.591 79.956 177.839 79.956C176.231 79.956 175.427 79.32 175.427 78.048ZM178.379 48.816C178.379 48.192 178.619 47.664 179.099 47.232C179.603 46.776 180.215 46.548 180.935 46.548C181.631 46.548 182.219 46.776 182.699 47.232C183.203 47.664 183.455 48.192 183.455 48.816C183.455 49.416 183.203 49.944 182.699 50.4C182.219 50.856 181.631 51.084 180.935 51.084C180.215 51.084 179.603 50.856 179.099 50.4C178.619 49.944 178.379 49.416 178.379 48.816ZM186.675 48.816C186.675 48.192 186.915 47.664 187.395 47.232C187.899 46.776 188.511 46.548 189.231 46.548C189.927 46.548 190.515 46.776 190.995 47.232C191.499 47.664 191.751 48.192 191.751 48.816C191.751 49.416 191.499 49.944 190.995 50.4C190.515 50.856 189.927 51.084 189.231 51.084C188.511 51.084 187.899 50.856 187.395 50.4C186.915 49.944 186.675 49.416 186.675 48.816ZM186.927 70.524V56.34C186.927 55.908 187.143 55.56 187.575 55.296C188.007 55.032 188.559 54.9 189.231 54.9C189.903 54.9 190.455 55.032 190.887 55.296C191.343 55.56 191.571 55.908 191.571 56.34V70.524C191.571 70.884 191.331 71.22 190.851 71.532C190.395 71.844 189.855 72 189.231 72C188.583 72 188.031 71.856 187.575 71.568C187.143 71.256 186.927 70.908 186.927 70.524Z" fill="white"/>
</svg>
